<svg id="Layer_1" xmlns="http://www.w3.org/2000/svg" width="98" height="130"><style>.st1{fill:#333}.st2{fill:#565656}</style><path id="_x3C_Slice_x3E__6_" fill="none" d="M0 0h98v129.9H0z"/><path class="st1" d="M13.8 31.2H5.9L13 20H9.3L1 33.2l8.3 13.3H13L5.9 35.2h7.9zM84.2 35.2h7.9L85 46.5h3.7L97 33.2 88.7 20H85l7.1 11.2h-7.9z"/><path class="st2" d="M13.8 96H5.9L13 84.8H9.3L1 98l8.3 13.2H13L5.9 100h7.9zM84.2 100h7.9L85 111.2h3.7L97 98l-8.3-13.2H85L92.1 96h-7.9z"/><path class="st1" d="M50.9 17.5l4.3-4.3c.2-.2.3-.5.3-.8s-.1-.6-.3-.7c-.4-.4-1-.4-1.5 0L49.4 16 45 11.7c-.4-.4-1-.4-1.5 0-.4.4-.4 1.1 0 1.5l4.3 4.3-4.4 4.3c-.4.4-.4 1.1 0 1.5s1 .4 1.5 0l4.3-4.3 4.3 4.3c.2.2.5.3.8.3s.6-.1.8-.3c.4-.4.4-1 0-1.5l-4.2-4.3z"/><path class="st2" d="M50.9 112.5l4.3-4.3c.2-.2.3-.5.3-.8s-.1-.6-.3-.8c-.4-.4-1.1-.4-1.5 0l-4.3 4.3-4.3-4.3c-.4-.4-1-.4-1.5 0-.4.4-.4 1.1 0 1.5l4.3 4.3-4.3 4.3c-.4.4-.4 1.1 0 1.5s1 .4 1.5 0l4.3-4.3 4.3 4.3c.2.2.5.3.8.3s.6-.1.8-.3c.4-.4.4-1.1 0-1.5l-4.4-4.2z"/></svg>